<svg xmlns="http://www.w3.org/2000/svg" width="1264" height="360" viewBox="0 0 1264 360"><defs><clipPath id="cb"><rect x="44" y="30" width="300" height="300" rx="66"/></clipPath></defs><g clip-path="url(#cb)"><rect x="44" y="30" width="300" height="300" fill="#4F46E5"/><g transform="translate(44,30) scale(0.2930)"><g transform="translate(512,512) scale(1.4) translate(-512,-512)"><g transform="rotate(-16 512 512)"><path d="M54 11 L54 42 L80 42 L45 89 L45 58 L20 58 Z" transform="translate(162.0,162.0) scale(7.000)" fill="#98A0F7"/></g><g transform="translate(190.2,676.1) scale(0.6)"><path d="M264 10Q194 10 126.0 -5.0Q58 -20 16 -44L78 -193Q117 -170 168.5 -157.0Q220 -144 269 -144Q310 -144 324.5 -151.0Q339 -158 339 -170Q339 -182 322.0 -187.5Q305 -193 277.0 -196.0Q249 -199 215.5 -203.5Q182 -208 148.0 -217.0Q114 -226 86.0 -244.0Q58 -262 41.0 -292.5Q24 -323 24 -370Q24 -422 55.5 -464.0Q87 -506 149.5 -531.5Q212 -557 304 -557Q364 -557 424.0 -546.0Q484 -535 527 -512L465 -363Q423 -386 382.5 -394.5Q342 -403 307 -403Q264 -403 248.5 -395.0Q233 -387 233 -377Q233 -365 250.0 -359.0Q267 -353 295.0 -350.0Q323 -347 356.5 -342.5Q390 -338 423.5 -328.5Q457 -319 485.0 -301.0Q513 -283 530.0 -252.5Q547 -222 547 -175Q547 -126 516.0 -83.5Q485 -41 422.0 -15.5Q359 10 264 10Z" fill="#A5B4FC"/></g><g transform="translate(343.1,676.1) scale(0.6)"><path d="M264 10Q194 10 126.0 -5.0Q58 -20 16 -44L78 -193Q117 -170 168.5 -157.0Q220 -144 269 -144Q310 -144 324.5 -151.0Q339 -158 339 -170Q339 -182 322.0 -187.5Q305 -193 277.0 -196.0Q249 -199 215.5 -203.5Q182 -208 148.0 -217.0Q114 -226 86.0 -244.0Q58 -262 41.0 -292.5Q24 -323 24 -370Q24 -422 55.5 -464.0Q87 -506 149.5 -531.5Q212 -557 304 -557Q364 -557 424.0 -546.0Q484 -535 527 -512L465 -363Q423 -386 382.5 -394.5Q342 -403 307 -403Q264 -403 248.5 -395.0Q233 -387 233 -377Q233 -365 250.0 -359.0Q267 -353 295.0 -350.0Q323 -347 356.5 -342.5Q390 -338 423.5 -328.5Q457 -319 485.0 -301.0Q513 -283 530.0 -252.5Q547 -222 547 -175Q547 -126 516.0 -83.5Q485 -41 422.0 -15.5Q359 10 264 10Z" fill="#C7D2FE"/></g><g transform="translate(496.0,676.1) scale(0.6)"><path d="M264 10Q194 10 126.0 -5.0Q58 -20 16 -44L78 -193Q117 -170 168.5 -157.0Q220 -144 269 -144Q310 -144 324.5 -151.0Q339 -158 339 -170Q339 -182 322.0 -187.5Q305 -193 277.0 -196.0Q249 -199 215.5 -203.5Q182 -208 148.0 -217.0Q114 -226 86.0 -244.0Q58 -262 41.0 -292.5Q24 -323 24 -370Q24 -422 55.5 -464.0Q87 -506 149.5 -531.5Q212 -557 304 -557Q364 -557 424.0 -546.0Q484 -535 527 -512L465 -363Q423 -386 382.5 -394.5Q342 -403 307 -403Q264 -403 248.5 -395.0Q233 -387 233 -377Q233 -365 250.0 -359.0Q267 -353 295.0 -350.0Q323 -347 356.5 -342.5Q390 -338 423.5 -328.5Q457 -319 485.0 -301.0Q513 -283 530.0 -252.5Q547 -222 547 -175Q547 -126 516.0 -83.5Q485 -41 422.0 -15.5Q359 10 264 10Z" fill="#FFFFFF"/></g></g></g></g><g transform="translate(400,226) scale(0.1478)"><path d="M264.0 10Q194.0 10 126.0 -5.0Q58.0 -20 16.0 -44L78.0 -193Q117.0 -170 168.5 -157.0Q220.0 -144 269.0 -144Q310.0 -144 324.5 -151.0Q339.0 -158 339.0 -170Q339.0 -182 322.0 -187.5Q305.0 -193 277.0 -196.0Q249.0 -199 215.5 -203.5Q182.0 -208 148.0 -217.0Q114.0 -226 86.0 -244.0Q58.0 -262 41.0 -292.5Q24.0 -323 24.0 -370Q24.0 -422 55.5 -464.0Q87.0 -506 149.5 -531.5Q212.0 -557 304.0 -557Q364.0 -557 424.0 -546.0Q484.0 -535 527.0 -512L465.0 -363Q423.0 -386 382.5 -394.5Q342.0 -403 307.0 -403Q264.0 -403 248.5 -395.0Q233.0 -387 233.0 -377Q233.0 -365 250.0 -359.0Q267.0 -353 295.0 -350.0Q323.0 -347 356.5 -342.5Q390.0 -338 423.5 -328.5Q457.0 -319 485.0 -301.0Q513.0 -283 530.0 -252.5Q547.0 -222 547.0 -175Q547.0 -126 516.0 -83.5Q485.0 -41 422.0 -15.5Q359.0 10 264.0 10Z M580.0 0V-547H806.0V0ZM693.0 -591Q631.0 -591 594.0 -624.0Q557.0 -657 557.0 -706Q557.0 -755 594.0 -788.0Q631.0 -821 693.0 -821Q755.0 -821 792.0 -790.0Q829.0 -759 829.0 -710Q829.0 -658 792.0 -624.5Q755.0 -591 693.0 -591Z M1236.0 10Q1165.0 10 1118.5 -20.5Q1072.0 -51 1050.0 -113.5Q1028.0 -176 1028.0 -273Q1028.0 -372 1048.5 -434.5Q1069.0 -497 1115.0 -527.0Q1161.0 -557 1236.0 -557Q1308.0 -557 1368.0 -522.5Q1428.0 -488 1464.0 -424.5Q1500.0 -361 1500.0 -273Q1500.0 -185 1464.0 -121.5Q1428.0 -58 1368.0 -24.0Q1308.0 10 1236.0 10ZM871.0 194V-547H1086.0V-473L1087.0 -273L1097.0 -73V194ZM1182.0 -166Q1207.0 -166 1227.0 -178.0Q1247.0 -190 1259.0 -214.0Q1271.0 -238 1271.0 -273Q1271.0 -309 1259.0 -333.0Q1247.0 -357 1227.0 -369.0Q1207.0 -381 1182.0 -381Q1157.0 -381 1137.0 -369.0Q1117.0 -357 1105.0 -333.0Q1093.0 -309 1093.0 -273Q1093.0 -238 1105.0 -214.0Q1117.0 -190 1137.0 -178.0Q1157.0 -166 1182.0 -166Z M1750.0 10Q1680.0 10 1612.0 -5.0Q1544.0 -20 1502.0 -44L1564.0 -193Q1603.0 -170 1654.5 -157.0Q1706.0 -144 1755.0 -144Q1796.0 -144 1810.5 -151.0Q1825.0 -158 1825.0 -170Q1825.0 -182 1808.0 -187.5Q1791.0 -193 1763.0 -196.0Q1735.0 -199 1701.5 -203.5Q1668.0 -208 1634.0 -217.0Q1600.0 -226 1572.0 -244.0Q1544.0 -262 1527.0 -292.5Q1510.0 -323 1510.0 -370Q1510.0 -422 1541.5 -464.0Q1573.0 -506 1635.5 -531.5Q1698.0 -557 1790.0 -557Q1850.0 -557 1910.0 -546.0Q1970.0 -535 2013.0 -512L1951.0 -363Q1909.0 -386 1868.5 -394.5Q1828.0 -403 1793.0 -403Q1750.0 -403 1734.5 -395.0Q1719.0 -387 1719.0 -377Q1719.0 -365 1736.0 -359.0Q1753.0 -353 1781.0 -350.0Q1809.0 -347 1842.5 -342.5Q1876.0 -338 1909.5 -328.5Q1943.0 -319 1971.0 -301.0Q1999.0 -283 2016.0 -252.5Q2033.0 -222 2033.0 -175Q2033.0 -126 2002.0 -83.5Q1971.0 -41 1908.0 -15.5Q1845.0 10 1750.0 10Z M2397.0 0V-97L2381.0 -123V-307Q2381.0 -347 2356.5 -368.0Q2332.0 -389 2277.0 -389Q2240.0 -389 2202.0 -377.5Q2164.0 -366 2137.0 -346L2065.0 -495Q2113.0 -525 2180.0 -541.0Q2247.0 -557 2311.0 -557Q2452.0 -557 2529.5 -494.0Q2607.0 -431 2607.0 -294V0ZM2242.0 10Q2175.0 10 2130.0 -13.0Q2085.0 -36 2062.0 -74.5Q2039.0 -113 2039.0 -160Q2039.0 -213 2066.0 -250.0Q2093.0 -287 2148.5 -306.0Q2204.0 -325 2289.0 -325H2403.0V-216H2325.0Q2289.0 -216 2272.5 -204.5Q2256.0 -193 2256.0 -170Q2256.0 -151 2270.5 -138.5Q2285.0 -126 2310.0 -126Q2333.0 -126 2352.5 -138.5Q2372.0 -151 2381.0 -178L2410.0 -111Q2397.0 -50 2355.0 -20.0Q2313.0 10 2242.0 10Z M2859.0 -90 2864.0 -356 3053.0 -547H3320.0L3070.0 -285L2957.0 -194ZM2670.0 0V-742H2896.0V0ZM3065.0 0 2915.0 -190 3054.0 -361 3338.0 0Z M3550.0 10Q3480.0 10 3412.0 -5.0Q3344.0 -20 3302.0 -44L3364.0 -193Q3403.0 -170 3454.5 -157.0Q3506.0 -144 3555.0 -144Q3596.0 -144 3610.5 -151.0Q3625.0 -158 3625.0 -170Q3625.0 -182 3608.0 -187.5Q3591.0 -193 3563.0 -196.0Q3535.0 -199 3501.5 -203.5Q3468.0 -208 3434.0 -217.0Q3400.0 -226 3372.0 -244.0Q3344.0 -262 3327.0 -292.5Q3310.0 -323 3310.0 -370Q3310.0 -422 3341.5 -464.0Q3373.0 -506 3435.5 -531.5Q3498.0 -557 3590.0 -557Q3650.0 -557 3710.0 -546.0Q3770.0 -535 3813.0 -512L3751.0 -363Q3709.0 -386 3668.5 -394.5Q3628.0 -403 3593.0 -403Q3550.0 -403 3534.5 -395.0Q3519.0 -387 3519.0 -377Q3519.0 -365 3536.0 -359.0Q3553.0 -353 3581.0 -350.0Q3609.0 -347 3642.5 -342.5Q3676.0 -338 3709.5 -328.5Q3743.0 -319 3771.0 -301.0Q3799.0 -283 3816.0 -252.5Q3833.0 -222 3833.0 -175Q3833.0 -126 3802.0 -83.5Q3771.0 -41 3708.0 -15.5Q3645.0 10 3550.0 10Z M4231.0 10Q4160.0 10 4113.5 -20.5Q4067.0 -51 4045.0 -113.5Q4023.0 -176 4023.0 -273Q4023.0 -372 4043.5 -434.5Q4064.0 -497 4110.0 -527.0Q4156.0 -557 4231.0 -557Q4303.0 -557 4363.0 -522.5Q4423.0 -488 4459.0 -424.5Q4495.0 -361 4495.0 -273Q4495.0 -185 4459.0 -121.5Q4423.0 -58 4363.0 -24.0Q4303.0 10 4231.0 10ZM3866.0 194V-547H4081.0V-473L4082.0 -273L4092.0 -73V194ZM4177.0 -166Q4202.0 -166 4222.0 -178.0Q4242.0 -190 4254.0 -214.0Q4266.0 -238 4266.0 -273Q4266.0 -309 4254.0 -333.0Q4242.0 -357 4222.0 -369.0Q4202.0 -381 4177.0 -381Q4152.0 -381 4132.0 -369.0Q4112.0 -357 4100.0 -333.0Q4088.0 -309 4088.0 -273Q4088.0 -238 4100.0 -214.0Q4112.0 -190 4132.0 -178.0Q4152.0 -166 4177.0 -166Z M4820.0 10Q4727.0 10 4655.5 -26.5Q4584.0 -63 4543.0 -127.0Q4502.0 -191 4502.0 -274Q4502.0 -357 4543.0 -421.0Q4584.0 -485 4655.5 -521.0Q4727.0 -557 4820.0 -557Q4913.0 -557 4985.0 -521.0Q5057.0 -485 5097.5 -421.0Q5138.0 -357 5138.0 -274Q5138.0 -191 5097.5 -127.0Q5057.0 -63 4985.0 -26.5Q4913.0 10 4820.0 10ZM4820.0 -166Q4845.0 -166 4865.0 -178.0Q4885.0 -190 4897.0 -214.5Q4909.0 -239 4909.0 -274Q4909.0 -310 4897.0 -333.5Q4885.0 -357 4865.0 -369.0Q4845.0 -381 4820.0 -381Q4795.0 -381 4775.0 -369.0Q4755.0 -357 4743.0 -333.5Q4731.0 -310 4731.0 -274Q4731.0 -239 4743.0 -214.5Q4755.0 -190 4775.0 -178.0Q4795.0 -166 4820.0 -166Z M5174.0 0V-547H5389.0V-382L5354.0 -429Q5379.0 -493 5434.0 -525.0Q5489.0 -557 5566.0 -557V-357Q5551.0 -359 5539.5 -360.0Q5528.0 -361 5516.0 -361Q5465.0 -361 5432.5 -334.5Q5400.0 -308 5400.0 -243V0Z" transform="translate(-16,0)" fill="#4F46E5"/></g></svg>
