<svg xmlns="http://www.w3.org/2000/svg" width="512" height="512" viewBox="0 0 512 512"><defs><clipPath id="rf"><rect width="512" height="512" rx="120"/></clipPath></defs><g clip-path="url(#rf)"><rect width="512" height="512" fill="#4F46E5"/><g transform="scale(0.5)"><g transform="translate(512,512) scale(1.4) translate(-512,-512)"><g transform="rotate(-16 512 512)"><path d="M54 11 L54 42 L80 42 L45 89 L45 58 L20 58 Z" transform="translate(162.0,162.0) scale(7.000)" fill="#98A0F7"/></g><g transform="translate(190.2,676.1) scale(0.6)"><path d="M264 10Q194 10 126.0 -5.0Q58 -20 16 -44L78 -193Q117 -170 168.5 -157.0Q220 -144 269 -144Q310 -144 324.5 -151.0Q339 -158 339 -170Q339 -182 322.0 -187.5Q305 -193 277.0 -196.0Q249 -199 215.5 -203.5Q182 -208 148.0 -217.0Q114 -226 86.0 -244.0Q58 -262 41.0 -292.5Q24 -323 24 -370Q24 -422 55.5 -464.0Q87 -506 149.5 -531.5Q212 -557 304 -557Q364 -557 424.0 -546.0Q484 -535 527 -512L465 -363Q423 -386 382.5 -394.5Q342 -403 307 -403Q264 -403 248.5 -395.0Q233 -387 233 -377Q233 -365 250.0 -359.0Q267 -353 295.0 -350.0Q323 -347 356.5 -342.5Q390 -338 423.5 -328.5Q457 -319 485.0 -301.0Q513 -283 530.0 -252.5Q547 -222 547 -175Q547 -126 516.0 -83.5Q485 -41 422.0 -15.5Q359 10 264 10Z" fill="#A5B4FC"/></g><g transform="translate(343.1,676.1) scale(0.6)"><path d="M264 10Q194 10 126.0 -5.0Q58 -20 16 -44L78 -193Q117 -170 168.5 -157.0Q220 -144 269 -144Q310 -144 324.5 -151.0Q339 -158 339 -170Q339 -182 322.0 -187.5Q305 -193 277.0 -196.0Q249 -199 215.5 -203.5Q182 -208 148.0 -217.0Q114 -226 86.0 -244.0Q58 -262 41.0 -292.5Q24 -323 24 -370Q24 -422 55.5 -464.0Q87 -506 149.5 -531.5Q212 -557 304 -557Q364 -557 424.0 -546.0Q484 -535 527 -512L465 -363Q423 -386 382.5 -394.5Q342 -403 307 -403Q264 -403 248.5 -395.0Q233 -387 233 -377Q233 -365 250.0 -359.0Q267 -353 295.0 -350.0Q323 -347 356.5 -342.5Q390 -338 423.5 -328.5Q457 -319 485.0 -301.0Q513 -283 530.0 -252.5Q547 -222 547 -175Q547 -126 516.0 -83.5Q485 -41 422.0 -15.5Q359 10 264 10Z" fill="#C7D2FE"/></g><g transform="translate(496.0,676.1) scale(0.6)"><path d="M264 10Q194 10 126.0 -5.0Q58 -20 16 -44L78 -193Q117 -170 168.5 -157.0Q220 -144 269 -144Q310 -144 324.5 -151.0Q339 -158 339 -170Q339 -182 322.0 -187.5Q305 -193 277.0 -196.0Q249 -199 215.5 -203.5Q182 -208 148.0 -217.0Q114 -226 86.0 -244.0Q58 -262 41.0 -292.5Q24 -323 24 -370Q24 -422 55.5 -464.0Q87 -506 149.5 -531.5Q212 -557 304 -557Q364 -557 424.0 -546.0Q484 -535 527 -512L465 -363Q423 -386 382.5 -394.5Q342 -403 307 -403Q264 -403 248.5 -395.0Q233 -387 233 -377Q233 -365 250.0 -359.0Q267 -353 295.0 -350.0Q323 -347 356.5 -342.5Q390 -338 423.5 -328.5Q457 -319 485.0 -301.0Q513 -283 530.0 -252.5Q547 -222 547 -175Q547 -126 516.0 -83.5Q485 -41 422.0 -15.5Q359 10 264 10Z" fill="#FFFFFF"/></g></g></g></g></svg>
